<svg width="20" height="18" viewBox="0 0 20 18" fill="none" xmlns="http://www.w3.org/2000/svg">
<path d="M5.53125 0.6875C7.19271 0.6875 8.68229 1.36068 10 2.70703C11.3177 1.36068 12.8073 0.6875 14.4688 0.6875C15.901 0.6875 17.1185 1.20312 18.1211 2.23438C19.1237 3.23698 19.625 4.4401 19.625 5.84375C19.625 6.41667 19.4818 7.00391 19.1953 7.60547C18.9089 8.17839 18.6224 8.60807 18.3359 8.89453L17.9062 9.28125L10.5156 16.7578L10 17.2734L9.48438 16.7578L2.09375 9.28125C1.80729 9.02344 1.52083 8.69401 1.23438 8.29297C0.661458 7.43359 0.375 6.61719 0.375 5.84375C0.375 4.4401 0.876302 3.23698 1.87891 2.23438C2.88151 1.20312 4.09896 0.6875 5.53125 0.6875ZM5.53125 2.0625C4.5 2.0625 3.61198 2.4349 2.86719 3.17969C2.1224 3.92448 1.75 4.8125 1.75 5.84375C1.75 6.33073 1.95052 6.88932 2.35156 7.51953L3.03906 8.33594L10 15.2969L16.9609 8.33594C17.8203 7.39062 18.25 6.5599 18.25 5.84375C18.25 4.8125 17.8776 3.92448 17.1328 3.17969C16.388 2.4349 15.5 2.0625 14.4688 2.0625C13.8672 2.0625 13.237 2.23438 12.5781 2.57812C11.9193 2.89323 11.4036 3.22266 11.0312 3.56641L10.5156 4.03906L10 4.64062L9.48438 4.03906C9.34115 3.89583 9.14062 3.72396 8.88281 3.52344C8.65365 3.29427 8.18099 2.99349 7.46484 2.62109C6.77734 2.2487 6.13281 2.0625 5.53125 2.0625Z" fill="#202224"/>
</svg>
