<svg width="18" height="17" viewBox="0 0 18 17" fill="none" xmlns="http://www.w3.org/2000/svg">
<path d="M5.04688 0.859375L6.07812 1.89062L3.32812 4.64062L2.8125 5.07031L2.29688 4.64062L0.921875 3.26562L1.95312 2.23438L2.8125 3.13672L5.04688 0.859375ZM8.3125 2.0625H17.25V3.4375H8.3125V2.0625ZM5.04688 6.35938L6.07812 7.39062L3.32812 10.1406L2.8125 10.5703L2.29688 10.1406L0.921875 8.76562L1.95312 7.73438L2.8125 8.63672L5.04688 6.35938ZM8.3125 7.5625H17.25V8.9375H8.3125V7.5625ZM5.04688 11.8594L6.07812 12.8906L3.32812 15.6406L2.8125 16.0703L2.29688 15.6406L0.921875 14.2656L1.95312 13.2344L2.8125 14.1367L5.04688 11.8594ZM8.3125 13.0625H17.25V14.4375H8.3125V13.0625Z" fill="#202224"/>
</svg>
